<svg xmlns="http://www.w3.org/2000/svg" viewBox="0 0 32 34" width="32" height="34">
  <defs>
    <linearGradient id="favGrad" x1="0%" y1="0%" x2="100%" y2="100%">
      <stop offset="0%" stop-color="#3b82f6"/>
      <stop offset="100%" stop-color="#8b5cf6"/>
    </linearGradient>
  </defs>
  <path d="M31.36 21.9056C31.3521 22.3786 31.1985 22.8387 30.9206 23.2221H30.9163C30.7009 23.2221 30.4877 23.1253 30.3462 22.9412L28.1622 20.0976L24.2558 15.0103C23.8344 14.4621 22.9721 14.5975 22.7402 15.2482L21.8794 17.6639L21.3962 19.0184L17.0992 31.0734L16.2262 33.5214C15.7696 33.639 15.2878 33.6246 14.8398 33.4792C14.8089 33.3494 14.814 33.209 14.8621 33.0735L15.7128 30.6857L20.0823 18.4286L20.5648 17.0742L21.1722 15.37C21.4256 14.6598 20.717 13.9855 20.0184 14.2721L17.0425 15.4926L15.2131 16.2429L11.0533 17.9492L9.72292 18.4952L2.61083 21.4119L0.703217 22.1944C0.613472 22.2317 0.521573 22.2489 0.430393 22.2489C0.412444 22.2489 0.395213 22.2482 0.377264 22.2468C0.123825 21.8655 -0.00756129 21.4155 0.000336242 20.9583C0.0477214 20.9224 0.100132 20.8931 0.157569 20.8694L3.00858 19.6999L9.25912 17.1358L10.5902 16.5904L13.4096 15.4338L15.239 14.6835L19.6099 12.8905C20.2963 12.6089 20.3401 11.655 19.6817 11.3125L14.4765 8.60077L13.0765 7.87124L8.09315 5.2749L6.55098 4.47157C6.3478 4.36622 6.21641 4.17775 6.17764 3.96921C6.42175 3.62953 6.74267 3.35148 7.11386 3.15799C7.14832 3.16946 7.18206 3.18379 7.21509 3.20099L9.08537 4.1756L14.3243 6.90451L15.7243 7.63404L20.4844 10.1136C21.3869 10.5837 22.4753 9.97239 22.542 8.95908L22.9721 2.40553L23.1035 0.406862C23.11 0.305101 23.138 0.20979 23.1817 0.124512C23.6944 0.258521 24.1574 0.544455 24.5071 0.944332L24.2896 4.25586L23.8774 10.5314C23.8143 11.4995 24.105 12.4584 24.6966 13.228L28.9412 18.7554L31.36 21.9056Z" fill="url(#favGrad)" fill-opacity="0.3"/>
  <path d="M31.2477 21.1415L25.036 1.84518C24.9225 1.49006 24.7394 1.17368 24.5068 0.908237C24.1572 0.507918 23.6941 0.221669 23.1815 0.0875119C22.7967 -0.0143613 22.3838 -0.0301445 21.9703 0.0552281L7.84322 2.86965C7.58547 2.91916 7.33993 3.00596 7.11378 3.12434C6.7426 3.31804 6.42168 3.5964 6.17757 3.93645C6.03686 4.13159 5.92198 4.34753 5.83727 4.57926L5.32968 5.97105L0.139618 20.2017C0.0498748 20.4442 0.00392599 20.696 0.000336239 20.9443C-0.00756121 21.402 0.123824 21.8525 0.37726 22.2342C0.509362 22.4336 0.674491 22.6144 0.870491 22.7672L14.0779 33.0758C14.3112 33.2573 14.569 33.3922 14.8396 33.479C15.2876 33.6246 15.7694 33.6389 16.226 33.5213C16.5117 33.4481 16.7881 33.3226 17.0401 33.1446L30.3797 23.7436C30.5922 23.5937 30.7738 23.4129 30.9203 23.2106C31.1981 22.8268 31.3518 22.3662 31.3597 21.8927C31.364 21.643 31.3281 21.3891 31.2477 21.1415ZM22.1728 2.60349C22.414 2.41625 22.699 2.34451 22.9718 2.37105C23.4005 2.41122 23.7975 2.69389 23.9447 3.15088L24.2893 4.22342L28.8978 18.5617C28.9172 18.6213 28.9315 18.6801 28.9409 18.7389C29.045 19.3437 28.6795 19.8861 28.1619 20.0826C27.8797 20.1902 27.5516 20.1953 27.2307 20.0511L21.8791 17.6463L20.5646 17.0559L17.0423 15.4725L15.2388 14.6626L10.8227 12.6782C10.3525 12.4665 10.2763 11.8309 10.6841 11.5145L14.4764 8.57312L15.7241 7.60532L22.1728 2.60349ZM9.48373 4.01465L18.0331 2.30576C18.7639 2.15941 19.1933 3.09851 18.6046 3.55479L14.3241 6.87499L13.0764 7.84279L9.78671 10.3939C9.38465 10.706 8.7945 10.4786 8.70619 9.97782L8.02701 6.14681C7.97173 5.83402 7.99829 5.52553 8.09306 5.24359C8.25317 4.76148 8.60927 4.35686 9.08527 4.14307C9.21019 4.08639 9.34373 4.04263 9.48373 4.01465ZM3.23254 15.9216L6.08137 8.10249C6.23501 7.67993 6.85029 7.73302 6.92927 8.17639L7.51224 11.4693C7.58978 11.9077 7.46486 12.3582 7.17193 12.6947L3.97562 16.3592C3.65614 16.7258 3.06598 16.3779 3.23254 15.9216ZM12.2256 29.8158L3.55275 23.0456C3.01142 22.623 2.69265 22.0254 2.6108 21.3984C2.53326 20.813 2.66249 20.2024 3.00854 19.6845C3.06813 19.5955 3.13347 19.5094 3.20598 19.4262L7.34065 14.6848C7.68814 14.2859 8.33788 14.4136 8.50804 14.9144L9.25901 17.1176L9.72281 18.4785L13.3219 29.0374C13.5473 29.6975 12.7755 30.2456 12.2256 29.8158ZM27.7168 23.8663L17.9419 30.7449C17.6798 30.9293 17.3905 31.0354 17.099 31.0706C16.6044 31.1323 16.1018 30.9895 15.7127 30.6825C15.4434 30.4708 15.228 30.1796 15.1067 29.823L11.0532 17.9318L10.5901 16.5716L10.1076 15.1569C9.92024 14.6066 10.4802 14.0979 11.0108 14.3361L13.4095 15.4137L15.213 16.2236L20.0821 18.4118L21.3959 19.0022L27.5136 21.7506C28.3787 22.1395 28.4914 23.3211 27.7168 23.8663Z" fill="url(#favGrad)"/>
</svg>
