<svg width="23" height="24" viewBox="0 0 23 24" fill="none" xmlns="http://www.w3.org/2000/svg">
<path d="M22.4 15.6468C22.3944 15.9847 22.2846 16.3133 22.0861 16.5871H22.0831C21.9292 16.5871 21.7769 16.518 21.6759 16.3865L20.1159 14.3554L17.3256 10.7216C17.0245 10.33 16.4086 10.4267 16.243 10.8915L15.6281 12.617L15.283 13.5845L12.2137 22.1952L11.5901 23.9438C11.264 24.0278 10.9199 24.0175 10.5999 23.9136C10.5778 23.821 10.5814 23.7206 10.6158 23.6239L11.2235 21.9183L14.3445 13.1632L14.6891 12.1958L15.123 10.9785C15.304 10.4712 14.7979 9.98957 14.2989 10.1943L12.1732 11.066L10.8665 11.602L7.89521 12.8208L6.94494 13.2108L1.86488 15.2941L0.502298 15.8531C0.438194 15.8797 0.372552 15.892 0.307423 15.892C0.294603 15.892 0.282295 15.8915 0.269474 15.8905C0.0884464 15.6182 -0.00540092 15.2967 0.000240173 14.9701C0.0340867 14.9445 0.0715231 14.9235 0.112549 14.9066L2.14898 14.0713L6.61365 12.2398L7.56443 11.8502L9.57831 11.0241L10.885 10.4881L14.0071 9.20742C14.4973 9.00626 14.5286 8.32495 14.0584 8.08027L10.3404 6.14333L9.34035 5.62224L5.78082 3.76772L4.67927 3.19391C4.53414 3.11866 4.44029 2.98404 4.4126 2.83508C4.58696 2.59245 4.8162 2.39384 5.08133 2.25564C5.10594 2.26383 5.13005 2.27407 5.15364 2.28635L6.48955 2.9825L10.2316 4.93172L11.2317 5.45281L14.6317 7.2239C15.2763 7.55969 16.0538 7.12306 16.1015 6.39927L16.4086 1.71817L16.5025 0.290546C16.5071 0.21786 16.5271 0.14978 16.5584 0.0888672C16.9245 0.184588 17.2553 0.388826 17.5051 0.674453L17.3497 3.03983L17.0553 7.52233C17.0102 8.21387 17.2179 8.89876 17.6405 9.44852L20.6723 13.3966L22.4 15.6468Z" fill="white" fill-opacity="0.4"/>
<path d="M22.3198 15.1011L17.8828 1.31799C17.8018 1.06433 17.671 0.838344 17.5049 0.64874C17.2551 0.362799 16.9244 0.158335 16.5582 0.0625085C16.2833 -0.0102581 15.9885 -0.0215318 15.6931 0.0394487L5.6023 2.04975C5.41819 2.08511 5.24281 2.14712 5.08127 2.23167C4.81614 2.37003 4.58691 2.56886 4.41255 2.81175C4.31204 2.95114 4.22999 3.10538 4.16948 3.2709L3.80691 4.26503L0.0997275 14.4298C0.0356248 14.603 0.00280428 14.7829 0.00024017 14.9602C-0.00540086 15.2871 0.0884454 15.6089 0.269471 15.8815C0.36383 16.024 0.481779 16.1531 0.621779 16.2623L10.0556 23.6256C10.2223 23.7552 10.4064 23.8515 10.5997 23.9135C10.9197 24.0176 11.2638 24.0278 11.59 23.9438C11.7941 23.8915 11.9915 23.8018 12.1715 23.6747L21.6998 16.9597C21.8515 16.8526 21.9813 16.7235 22.0859 16.579C22.2844 16.3048 22.3941 15.9758 22.3998 15.6376C22.4028 15.4593 22.3772 15.2779 22.3198 15.1011ZM15.8377 1.85964C16.01 1.72589 16.2136 1.67465 16.4085 1.69361C16.7146 1.7223 16.9982 1.92421 17.1033 2.25063L17.3495 3.01673L20.6413 13.2584C20.6551 13.3009 20.6654 13.3429 20.6721 13.3849C20.7464 13.8169 20.4854 14.2043 20.1156 14.3447C19.9141 14.4216 19.6797 14.4252 19.4505 14.3222L15.6279 12.6045L14.689 12.1828L12.1731 11.0518L10.8849 10.4733L7.73051 9.05584C7.39461 8.90467 7.34025 8.45065 7.63153 8.22466L10.3403 6.12366L11.2315 5.43237L15.8377 1.85964ZM6.77409 2.86761L12.8808 1.64697C13.4028 1.54244 13.7095 2.21322 13.289 2.53913L10.2315 4.91071L9.34025 5.60199L6.9905 7.42423C6.70332 7.64714 6.28179 7.4847 6.21871 7.12701L5.73358 4.39058C5.69409 4.16716 5.71307 3.94681 5.78076 3.74542C5.89512 3.40106 6.14948 3.11204 6.48948 2.95934C6.57871 2.91885 6.67409 2.88759 6.77409 2.86761ZM2.30896 11.3726L4.34383 5.78749C4.45358 5.48567 4.89307 5.52359 4.94948 5.84028L5.36589 8.19238C5.42127 8.50548 5.33204 8.82729 5.12281 9.06763L2.83973 11.6852C2.61153 11.947 2.18999 11.6985 2.30896 11.3726ZM8.73256 21.297L2.53768 16.4611C2.15101 16.1593 1.92332 15.7324 1.86486 15.2846C1.80947 14.8664 1.90178 14.4303 2.14896 14.0603C2.19152 13.9968 2.23819 13.9353 2.28999 13.8759L5.24332 10.4891C5.49153 10.2042 5.95563 10.2954 6.07717 10.6531L6.61358 12.2268L6.94486 13.1989L9.51564 20.741C9.67666 21.2125 9.12538 21.604 8.73256 21.297ZM19.7977 17.0474L12.8156 21.9606C12.6285 22.0923 12.4218 22.1682 12.2136 22.1933C11.8603 22.2373 11.5013 22.1354 11.2233 21.916C11.031 21.7649 10.8772 21.5568 10.7905 21.3021L7.89512 12.8084L7.56435 11.8369L7.21974 10.8263C7.08589 10.4333 7.48589 10.07 7.86486 10.2401L9.5782 11.0098L10.8664 11.5883L14.3444 13.1513L15.2828 13.573L19.6526 15.5362C20.2705 15.8139 20.351 16.6579 19.7977 17.0474Z" fill="white"/>
</svg>
