<svg width="139" height="31" viewBox="0 0 139 31" fill="none" xmlns="http://www.w3.org/2000/svg">
<path d="M23.0126 1.74384V22.8514H18.779V9.1224L13.1242 22.8514H9.91872L4.2336 9.1224V22.8514H0V1.74384H4.80816L11.5214 17.4384L18.2347 1.74384H23.0126Z" fill="white"/>
<path d="M31.4319 1.74386V22.8514H27.1983V1.74386H31.4319Z" fill="white"/>
<path d="M39.8483 1.74385V22.8514H35.6147V1.74385H39.8483Z" fill="white"/>
<path d="M60.0583 6.0984L49.686 30.7742H45.1802L48.809 22.428L42.0957 6.0984H46.8434L51.1677 17.8013L55.5525 6.0984H60.0583Z" fill="white"/>
<path d="M61.3123 12.2674C61.3123 10.1909 61.776 8.33616 62.7034 6.7032C63.6509 5.05008 64.931 3.76992 66.5438 2.86272C68.1768 1.93536 70.0013 1.47168 72.0173 1.47168C74.376 1.47168 76.4424 2.07648 78.2165 3.28608C79.9906 4.49568 81.2304 6.16896 81.936 8.30592H77.0674C76.5835 7.29792 75.8981 6.54192 75.011 6.03792C74.1442 5.53392 73.1362 5.28192 71.987 5.28192C70.7573 5.28192 69.6586 5.57424 68.6909 6.15888C67.7434 6.72336 66.9974 7.52976 66.4531 8.57808C65.929 9.6264 65.6669 10.8562 65.6669 12.2674C65.6669 13.6584 65.929 14.8882 66.4531 15.9566C66.9974 17.005 67.7434 17.8214 68.6909 18.4061C69.6586 18.9706 70.7573 19.2528 71.987 19.2528C73.1362 19.2528 74.1442 19.0008 75.011 18.4968C75.8981 17.9726 76.5835 17.2066 77.0674 16.1986H81.936C81.2304 18.3557 79.9906 20.039 78.2165 21.2486C76.4626 22.4381 74.3962 23.0328 72.0173 23.0328C70.0013 23.0328 68.1768 22.5792 66.5438 21.672C64.931 20.7446 63.6509 19.4645 62.7034 17.8315C61.776 16.1986 61.3123 14.3438 61.3123 12.2674Z" fill="white"/>
<path d="M92.9911 23.1235C91.3783 23.1235 89.9268 22.7707 88.6365 22.0651C87.3463 21.3394 86.3282 20.3213 85.5823 19.0109C84.8565 17.7005 84.4936 16.1885 84.4936 14.4749C84.4936 12.7613 84.8666 11.2493 85.6125 9.93888C86.3786 8.62848 87.4168 7.62048 88.7272 6.91488C90.0376 6.18912 91.4992 5.82624 93.112 5.82624C94.7248 5.82624 96.1864 6.18912 97.4968 6.91488C98.8072 7.62048 99.8354 8.62848 100.581 9.93888C101.347 11.2493 101.73 12.7613 101.73 14.4749C101.73 16.1885 101.337 17.7005 100.551 19.0109C99.785 20.3213 98.7367 21.3394 97.4061 22.0651C96.0957 22.7707 94.624 23.1235 92.9911 23.1235ZM92.9911 19.4342C93.7572 19.4342 94.4728 19.2528 95.1381 18.8899C95.8236 18.5069 96.3679 17.9424 96.7711 17.1965C97.1743 16.4506 97.3759 15.5434 97.3759 14.4749C97.3759 12.8822 96.9525 11.6626 96.1058 10.8158C95.2792 9.94896 94.2612 9.51552 93.0516 9.51552C91.842 9.51552 90.8239 9.94896 89.9973 10.8158C89.1909 11.6626 88.7877 12.8822 88.7877 14.4749C88.7877 16.0675 89.1808 17.2973 89.9671 18.1642C90.7735 19.0109 91.7815 19.4342 92.9911 19.4342Z" fill="white"/>
<path d="M109.07 8.69904C109.614 7.812 110.319 7.11648 111.186 6.61248C112.073 6.10848 113.081 5.85648 114.21 5.85648V10.3018H113.091C111.761 10.3018 110.753 10.6142 110.067 11.2392C109.402 11.8642 109.07 12.9528 109.07 14.5051V22.8514H104.836V6.0984H109.07V8.69904Z" fill="white"/>
<path d="M132.635 14.112C132.635 14.7168 132.595 15.2611 132.515 15.745H120.267C120.368 16.9546 120.791 17.9021 121.537 18.5875C122.283 19.273 123.201 19.6157 124.289 19.6157C125.862 19.6157 126.981 18.9403 127.646 17.5896H132.212C131.728 19.2024 130.801 20.533 129.43 21.5813C128.059 22.6094 126.376 23.1235 124.38 23.1235C122.767 23.1235 121.316 22.7707 120.025 22.0651C118.755 21.3394 117.757 20.3213 117.032 19.0109C116.326 17.7005 115.973 16.1885 115.973 14.4749C115.973 12.7411 116.326 11.219 117.032 9.90864C117.737 8.59824 118.725 7.59024 119.995 6.88464C121.265 6.17904 122.727 5.82624 124.38 5.82624C125.973 5.82624 127.394 6.16896 128.644 6.8544C129.914 7.53984 130.892 8.5176 131.577 9.78768C132.283 11.0376 132.635 12.479 132.635 14.112ZM128.251 12.9024C128.231 11.8138 127.837 10.9469 127.071 10.3018C126.305 9.63648 125.368 9.30384 124.259 9.30384C123.211 9.30384 122.324 9.6264 121.598 10.2715C120.892 10.8965 120.459 11.7734 120.298 12.9024H128.251Z" fill="white"/>
<circle cx="3.02206" cy="3.02206" r="2.85406" transform="matrix(1 0 0 -1 132.552 6.04395)" stroke="white" stroke-width="0.336"/>
<path d="M135.994 4.70017L135.276 3.42438H134.968V4.70017H134.315V1.42627H135.537C135.789 1.42627 136.003 1.47161 136.18 1.56229C136.358 1.64985 136.49 1.77023 136.577 1.92345C136.667 2.07354 136.712 2.2424 136.712 2.43002C136.712 2.64577 136.65 2.84121 136.526 3.01632C136.401 3.1883 136.216 3.30712 135.971 3.37279L136.749 4.70017H135.994ZM134.968 2.93189H135.514C135.691 2.93189 135.823 2.88967 135.91 2.80525C135.997 2.71769 136.041 2.59731 136.041 2.44409C136.041 2.29399 135.997 2.1783 135.91 2.097C135.823 2.01257 135.691 1.97036 135.514 1.97036H134.968V2.93189Z" fill="white"/>
</svg>
