<svg width="99" height="22" viewBox="0 0 99 22" fill="none" xmlns="http://www.w3.org/2000/svg">
<path d="M16.4376 1.24616V16.323H13.4136V6.51656L9.3744 16.323H7.0848L3.024 6.51656V16.323H0V1.24616H3.4344L8.2296 12.4566L13.0248 1.24616H16.4376Z" fill="white"/>
<path d="M22.4513 1.24617V16.323H19.4273V1.24617H22.4513Z" fill="white"/>
<path d="M28.4631 1.24617V16.323H25.4391V1.24617H28.4631Z" fill="white"/>
<path d="M42.8988 4.35656L35.49 21.9822H32.2716L34.8636 16.0206L30.0684 4.35656H33.4596L36.5484 12.7158L39.6804 4.35656H42.8988Z" fill="white"/>
<path d="M43.7945 8.76296C43.7945 7.27976 44.1257 5.95496 44.7881 4.78856C45.4649 3.60776 46.3793 2.69336 47.5313 2.04536C48.6977 1.38296 50.0009 1.05176 51.4409 1.05176C53.1257 1.05176 54.6017 1.48376 55.8689 2.34776C57.1361 3.21176 58.0217 4.40696 58.5257 5.93336H55.0481C54.7025 5.21336 54.2129 4.67336 53.5793 4.31336C52.9601 3.95336 52.2401 3.77336 51.4193 3.77336C50.5409 3.77336 49.7561 3.98216 49.0649 4.39976C48.3881 4.80296 47.8553 5.37896 47.4665 6.12776C47.0921 6.87656 46.9049 7.75496 46.9049 8.76296C46.9049 9.75656 47.0921 10.635 47.4665 11.3982C47.8553 12.147 48.3881 12.7302 49.0649 13.1478C49.7561 13.551 50.5409 13.7526 51.4193 13.7526C52.2401 13.7526 52.9601 13.5726 53.5793 13.2126C54.2129 12.8382 54.7025 12.291 55.0481 11.571H58.5257C58.0217 13.1118 57.1361 14.3142 55.8689 15.1782C54.6161 16.0278 53.1401 16.4526 51.4409 16.4526C50.0009 16.4526 48.6977 16.1286 47.5313 15.4806C46.3793 14.8182 45.4649 13.9038 44.7881 12.7374C44.1257 11.571 43.7945 10.2462 43.7945 8.76296Z" fill="white"/>
<path d="M66.4222 16.5174C65.2702 16.5174 64.2334 16.2654 63.3118 15.7614C62.3902 15.243 61.663 14.5158 61.1302 13.5798C60.6118 12.6438 60.3526 11.5638 60.3526 10.3398C60.3526 9.11576 60.619 8.03576 61.1518 7.09976C61.699 6.16376 62.4406 5.44376 63.3766 4.93976C64.3126 4.42136 65.3566 4.16216 66.5086 4.16216C67.6606 4.16216 68.7046 4.42136 69.6406 4.93976C70.5766 5.44376 71.311 6.16376 71.8438 7.09976C72.391 8.03576 72.6646 9.11576 72.6646 10.3398C72.6646 11.5638 72.3838 12.6438 71.8222 13.5798C71.275 14.5158 70.5262 15.243 69.5758 15.7614C68.6398 16.2654 67.5886 16.5174 66.4222 16.5174ZM66.4222 13.8822C66.9694 13.8822 67.4806 13.7526 67.9558 13.4934C68.4454 13.2198 68.8342 12.8166 69.1222 12.2838C69.4102 11.751 69.5542 11.103 69.5542 10.3398C69.5542 9.20216 69.2518 8.33096 68.647 7.72616C68.0566 7.10696 67.3294 6.79736 66.4654 6.79736C65.6014 6.79736 64.8742 7.10696 64.2838 7.72616C63.7078 8.33096 63.4198 9.20216 63.4198 10.3398C63.4198 11.4774 63.7006 12.3558 64.2622 12.975C64.8382 13.5798 65.5582 13.8822 66.4222 13.8822Z" fill="white"/>
<path d="M77.9068 6.21416C78.2956 5.58056 78.7996 5.08376 79.4188 4.72376C80.0524 4.36376 80.7724 4.18376 81.5788 4.18376V7.35896H80.7796C79.8292 7.35896 79.1092 7.58216 78.6196 8.02856C78.1444 8.47496 77.9068 9.25256 77.9068 10.3614V16.323H74.8828V4.35656H77.9068V6.21416Z" fill="white"/>
<path d="M94.7396 10.0806C94.7396 10.5126 94.7108 10.9014 94.6532 11.247H85.9052C85.9772 12.111 86.2796 12.7878 86.8124 13.2774C87.3452 13.767 88.0004 14.0118 88.778 14.0118C89.9012 14.0118 90.7004 13.5294 91.1756 12.5646H94.4372C94.0916 13.7166 93.4292 14.667 92.45 15.4158C91.4708 16.1502 90.2684 16.5174 88.8428 16.5174C87.6908 16.5174 86.654 16.2654 85.7324 15.7614C84.8252 15.243 84.1124 14.5158 83.594 13.5798C83.09 12.6438 82.838 11.5638 82.838 10.3398C82.838 9.10136 83.09 8.01416 83.594 7.07816C84.098 6.14216 84.8036 5.42216 85.7108 4.91816C86.618 4.41416 87.662 4.16216 88.8428 4.16216C89.9804 4.16216 90.9956 4.40696 91.8884 4.89656C92.7956 5.38616 93.494 6.08456 93.9836 6.99176C94.4876 7.88456 94.7396 8.91416 94.7396 10.0806ZM91.6076 9.21656C91.5932 8.43896 91.3124 7.81976 90.7652 7.35896C90.218 6.88376 89.5484 6.64616 88.7564 6.64616C88.0076 6.64616 87.374 6.87656 86.8556 7.33736C86.3516 7.78376 86.042 8.41016 85.9268 9.21656H91.6076Z" fill="white"/>
<circle cx="2.15862" cy="2.15862" r="2.03862" transform="matrix(1 0 0 -1 94.6802 4.31738)" stroke="white" stroke-width="0.24"/>
<path d="M97.1387 3.35754L96.6257 2.44627H96.4058V3.35754H95.9395V1.01904H96.8122C96.9921 1.01904 97.1453 1.05143 97.2719 1.1162C97.3985 1.17874 97.4929 1.26473 97.5551 1.37417C97.6195 1.48138 97.6517 1.60199 97.6517 1.736C97.6517 1.89012 97.6073 2.02971 97.5184 2.15479C97.4296 2.27763 97.2975 2.36251 97.122 2.40941L97.6783 3.35754H97.1387ZM96.4058 2.09449H96.7956C96.9222 2.09449 97.0165 2.06433 97.0787 2.00403C97.1409 1.94149 97.172 1.8555 97.172 1.74606C97.172 1.63885 97.1409 1.55621 97.0787 1.49813C97.0165 1.43783 96.9222 1.40768 96.7956 1.40768H96.4058V2.09449Z" fill="white"/>
</svg>
